<svg xmlns="http://www.w3.org/2000/svg" viewBox="0 0 43 63" width="43" height="63">
	<style>
		tspan { white-space:pre }
		.shp0 { fill: #f5f5f5 } 
	</style>
	<g id="4">
		<g id="2 copy">
			<path id="Shape 4" class="shp0" d="M20.19 0.35C32.84 0.37 42.02 8.6 42.98 19.08C43.52 25.02 41.47 30.36 39.15 35.63C34.93 45.2 29.11 53.85 22.95 62.31C22.2 63.35 21.32 63.27 20.43 62.01C18.11 58.71 15.72 55.44 13.55 52.04C8.87 44.69 4.55 37.17 1.94 28.83C-0.04 22.48 -0.11 16.3 3.57 10.47C7.76 3.82 14.05 0.65 20.19 0.35ZM11.38 20.86C11.41 26.69 16.06 31.23 21.94 31.15C27.71 31.07 32.35 26.53 32.33 20.99C32.3 15.34 27.55 10.7 21.82 10.74C16.07 10.78 11.36 15.35 11.38 20.86Z" />
		</g>
	</g>
</svg>