<svg xmlns="http://www.w3.org/2000/svg" viewBox="0 0 53 53" width="53" height="53">
	<style>
		tspan { white-space:pre }
		.shp0 { fill: #e3ebf1 } 
	</style>
	<g id="4">
		<g id="2">
			<path id="Shape 5 copy" class="shp0" d="M36.28 52.22C25.79 52.22 15.3 52.22 4.8 52.22C4.74 52.19 4.69 52.15 4.62 52.14C3.47 51.97 2.54 51.41 1.79 50.52C1.2 49.83 0.95 48.99 0.74 48.14C0.74 33.45 0.74 18.77 0.74 4.08C0.77 4.02 0.81 3.96 0.82 3.9C0.99 2.72 1.56 1.78 2.47 1.02C3.15 0.45 3.97 0.2 4.8 0C13.84 0 22.88 0 31.91 0C32.81 0.2 33.67 0.44 34.38 1.08C35.88 2.46 37.25 3.96 38.72 5.37C39.86 6.47 40.36 7.8 40.35 9.38C40.32 13.09 40.34 16.79 40.34 20.49C40.34 20.64 40.3 20.79 40.49 21.06C40.64 20.85 40.75 20.65 40.9 20.5C42.22 19.16 43.53 17.81 44.88 16.5C46.99 14.45 49.97 14.67 51.81 16.95C52.33 17.61 52.53 18.39 52.73 19.17C52.73 19.51 52.73 19.85 52.73 20.19C52.49 21.62 51.67 22.66 50.68 23.65C47.32 26.98 44.01 30.34 40.66 33.68C40.41 33.93 40.33 34.19 40.33 34.53C40.34 38.84 40.34 43.15 40.34 47.47C40.33 49.05 39.73 50.36 38.45 51.33C37.8 51.82 37.04 52.02 36.28 52.22ZM37.29 37.11C36.9 37.48 36.52 37.64 36.12 37.78C34.17 38.42 32.22 39.08 30.27 39.74C29.92 39.85 29.56 39.93 29.18 39.82C28.26 39.54 27.86 38.7 28.2 37.66C28.86 35.63 29.53 33.61 30.2 31.59C30.34 31.18 30.58 30.84 30.89 30.54C32.94 28.49 34.98 26.43 37.03 24.38C37.23 24.19 37.3 23.99 37.3 23.71C37.29 20.04 37.29 16.37 37.31 12.7C37.31 12.31 37.2 12.22 36.83 12.23C34.52 12.24 32.22 12.24 29.92 12.24C28.75 12.23 28.16 11.64 28.16 10.44C28.16 8.18 28.14 5.92 28.17 3.66C28.18 3.18 28.08 3.04 27.57 3.04C20.26 3.06 12.95 3.06 5.65 3.06C4.35 3.06 3.79 3.62 3.79 4.91C3.79 19.03 3.79 33.16 3.79 47.28C3.79 48.6 4.34 49.16 5.67 49.16C15.57 49.16 25.47 49.16 35.36 49.16C35.53 49.16 35.7 49.17 35.87 49.15C36.65 49.09 37.28 48.47 37.29 47.69C37.3 44.2 37.29 40.72 37.29 37.11ZM45.48 24.51C45.42 24.44 45.38 24.38 45.34 24.33C44.73 23.72 44.11 23.11 43.51 22.49C43.35 22.33 43.27 22.41 43.15 22.53C42.73 22.97 42.3 23.4 41.86 23.83C40.02 25.68 38.19 27.53 36.34 29.38C36.09 29.62 36.06 29.77 36.34 30.01C36.72 30.34 37.06 30.72 37.42 31.08C38.19 31.86 38.19 31.87 38.97 31.09C41.03 29.02 43.09 26.95 45.14 24.89C45.26 24.77 45.36 24.64 45.48 24.51ZM34.27 9.18C35.03 9.18 35.79 9.18 36.55 9.18C37.37 9.18 37.52 8.91 37.09 8.17C36.99 8 36.85 7.84 36.71 7.7C35.35 6.33 33.98 4.97 32.62 3.6C32.34 3.31 32.01 3.13 31.61 3.06C31.32 3.02 31.19 3.09 31.19 3.43C31.21 5.21 31.21 6.99 31.19 8.78C31.19 9.13 31.32 9.19 31.63 9.19C32.51 9.17 33.39 9.18 34.27 9.18ZM48.24 18.15C47.76 18.15 47.4 18.29 47.11 18.57C46.64 19.03 46.18 19.51 45.71 19.96C45.54 20.12 45.56 20.23 45.71 20.37C46.29 20.96 46.88 21.54 47.46 22.13C47.57 22.25 47.68 22.34 47.83 22.18C48.36 21.63 48.95 21.14 49.4 20.52C49.76 20.03 49.77 19.49 49.48 18.95C49.2 18.42 48.74 18.19 48.24 18.15ZM31.98 35.93C32.94 35.61 33.78 35.31 34.63 35.06C35.13 34.92 35.48 34.61 35.82 34.25C35.99 34.07 35.99 33.96 35.82 33.8C35.24 33.23 34.67 32.65 34.09 32.08C34 31.98 33.9 31.83 33.76 31.98C33.51 32.26 33.16 32.45 33.03 32.81C32.68 33.81 32.35 34.82 31.98 35.93ZM19.02 18.36C15.51 18.35 11.99 18.35 8.47 18.36C7.83 18.36 7.33 18.11 7.02 17.52C6.74 16.99 6.78 16.47 7.11 15.98C7.43 15.49 7.91 15.3 8.49 15.3C11.1 15.3 13.7 15.3 16.31 15.3C20.72 15.3 25.13 15.3 29.54 15.3C30.85 15.3 31.62 16.54 30.98 17.61C30.65 18.15 30.14 18.36 29.52 18.36C26.02 18.35 22.52 18.36 19.02 18.36ZM15.95 24.47C13.43 24.47 10.91 24.48 8.39 24.47C7.63 24.47 7.02 23.97 6.86 23.24C6.72 22.61 7.08 21.88 7.68 21.59C7.91 21.47 8.16 21.42 8.42 21.42C13.45 21.42 18.49 21.42 23.53 21.42C24.43 21.42 25.1 22.08 25.11 22.93C25.11 23.81 24.44 24.47 23.5 24.47C20.99 24.48 18.47 24.47 15.95 24.47ZM15.92 36.71C13.46 36.71 11.01 36.71 8.56 36.71C7.53 36.71 6.84 36.1 6.84 35.19C6.84 34.28 7.52 33.66 8.55 33.66C13.5 33.66 18.46 33.66 23.41 33.66C24.43 33.66 25.12 34.29 25.11 35.21C25.1 36.1 24.42 36.71 23.42 36.71C20.92 36.71 18.42 36.71 15.92 36.71ZM16.03 27.54C18.48 27.54 20.93 27.54 23.38 27.54C24.41 27.54 25.1 28.15 25.11 29.06C25.12 29.96 24.42 30.59 23.4 30.59C18.45 30.59 13.5 30.59 8.54 30.59C7.52 30.59 6.83 29.96 6.84 29.05C6.85 28.16 7.53 27.54 8.52 27.54C11.02 27.54 13.53 27.54 16.03 27.54ZM25.11 46.1C23.66 46.1 22.21 46.1 20.75 46.09C19.72 46.09 19.03 45.49 19.02 44.58C19.01 43.67 19.71 43.04 20.73 43.04C23.65 43.04 26.57 43.04 29.5 43.04C30.52 43.04 31.2 43.66 31.2 44.58C31.2 45.48 30.51 46.09 29.47 46.09C28.02 46.1 26.57 46.1 25.11 46.1Z" />
		</g>
	</g>
</svg>