<svg xmlns="http://www.w3.org/2000/svg" viewBox="0 0 48 48" width="48" height="48">
	<style>
		tspan { white-space:pre }
		.shp0 { fill: #e3ebf1 } 
	</style>
	<g id="4">
		<g id="2">
			<path id="Shape 6 copy" class="shp0" d="M23.92 25.59C29.9 25.59 35.89 25.61 41.87 25.58C42.68 25.57 42.88 25.8 42.88 26.57C42.84 32.32 42.86 38.06 42.86 43.81C42.85 46.18 41.25 47.73 38.81 47.73C28.87 47.73 18.92 47.73 8.98 47.73C6.47 47.73 4.91 46.19 4.91 43.73C4.9 38.01 4.93 32.3 4.88 26.59C4.88 25.72 5.17 25.57 5.98 25.58C11.96 25.61 17.94 25.59 23.92 25.59ZM23.14 32.74C23.14 34.08 22.41 34.9 21.6 34.5C20.72 34.07 19.63 33.74 19.79 32.41C19.82 32.16 19.73 31.89 19.66 31.63C19.55 31.24 19.28 30.98 18.85 31.02C18.42 31.06 18.18 31.34 18.19 31.77C18.2 32 18.18 32.25 18.26 32.46C18.63 33.43 18.16 33.82 17.26 34.06C16.72 34.2 16.02 34.42 16.36 35.19C16.69 35.95 17.35 35.67 17.84 35.38C18.84 34.81 19.68 35.02 20.56 35.63C21.38 36.19 21.32 37.09 20.55 37.7C19.52 38.52 18.57 38.27 17.55 37.79C17.08 37.56 16.59 37.54 16.35 38.11C16.1 38.69 16.49 39.03 16.98 39.14C18.14 39.4 18.64 39.96 18.24 41.15C18.07 41.66 18.18 42.22 18.86 42.28C19.45 42.34 19.66 41.89 19.7 41.38C19.71 41.24 19.77 41.11 19.76 40.98C19.67 39.75 20.56 39.27 21.51 38.84C22.16 38.54 23.02 39.07 23.15 39.76C23.41 41.1 22.8 41.95 21.67 42.6C21.23 42.85 21.09 43.29 21.41 43.71C21.74 44.14 22.17 44.06 22.58 43.77C22.69 43.69 22.81 43.62 22.9 43.52C23.56 42.77 24.19 42.8 24.88 43.52C25.29 43.95 25.86 44.34 26.35 43.69C26.8 43.12 26.32 42.71 25.84 42.41C24.95 41.85 24.45 41.17 24.6 40.05C24.74 38.94 25.5 38.51 26.55 38.97C27.55 39.41 27.98 40.08 28.03 41.1C28.06 41.66 28.11 42.36 28.92 42.28C29.75 42.19 29.67 41.46 29.5 40.94C29.14 39.88 29.63 39.45 30.6 39.21C31.15 39.07 31.7 38.8 31.41 38.11C31.12 37.41 30.52 37.62 30.03 37.87C29.08 38.34 28.24 38.43 27.3 37.75C26.38 37.08 26.36 36.23 27.28 35.57C28.25 34.87 29.13 34.99 30.11 35.47C30.58 35.7 31.14 35.82 31.41 35.19C31.69 34.55 31.21 34.26 30.68 34.13C29.62 33.88 29.13 33.38 29.51 32.25C29.68 31.75 29.69 31.1 28.91 31.03C28.17 30.97 28.05 31.58 28.04 32.13C28.02 33.24 27.52 33.95 26.45 34.39C25.54 34.75 24.76 34.28 24.59 33.34C24.37 32.06 25.06 31.37 26.02 30.76C26.47 30.47 26.71 30.06 26.35 29.59C25.98 29.1 25.47 29.21 25.12 29.6C24.27 30.54 23.48 30.56 22.65 29.6C22.59 29.52 22.5 29.46 22.41 29.42C22.03 29.22 21.67 29.24 21.41 29.59C21.15 29.93 21.2 30.28 21.52 30.57C21.79 30.82 22.07 31.07 22.39 31.26C23.02 31.63 23.3 32.13 23.14 32.74ZM23.93 0.49C30.15 0.49 36.37 0.49 42.59 0.49C45.49 0.49 47.39 2.34 47.39 5.16C47.4 11.64 47.4 18.11 47.39 24.59C47.39 25.68 46.79 26.35 45.87 26.33C45.01 26.31 44.43 25.65 44.37 24.63C44.36 24.36 44.37 24.1 44.37 23.83C44.37 19.21 44.37 14.6 44.37 9.98C44.37 8.42 44.38 6.86 44.36 5.3C44.35 3.92 43.85 3.46 42.44 3.46C30.1 3.46 17.77 3.46 5.43 3.46C3.84 3.46 3.4 3.89 3.4 5.49C3.39 11.64 3.4 17.78 3.4 23.93C3.4 25.57 2.94 26.3 1.9 26.32C0.82 26.36 0.37 25.63 0.37 23.9C0.37 17.72 0.36 11.54 0.37 5.37C0.37 2.25 2.19 0.49 5.37 0.49C11.56 0.49 17.74 0.49 23.93 0.49ZM23.84 20.42C17.86 20.42 11.89 20.4 5.91 20.44C5.12 20.44 4.92 20.24 4.88 19.45C4.68 16.3 7.23 13.72 10.66 13.76C19.5 13.87 28.34 13.79 37.19 13.8C40.85 13.81 43.15 16.29 42.87 19.83C42.81 20.64 42.28 20.41 41.87 20.41C35.86 20.42 29.85 20.42 23.84 20.42ZM11.78 21.88C13.76 21.88 15.74 21.93 17.72 21.86C18.85 21.82 18.53 22.54 18.59 23.11C18.66 23.76 18.56 24.14 17.69 24.13C13.73 24.08 9.77 24.07 5.81 24.13C4.84 24.14 4.88 23.67 4.9 23.03C4.91 22.39 4.78 21.81 5.84 21.85C7.81 21.94 9.8 21.88 11.78 21.88ZM36.08 24.1C34.07 24.1 32.05 24.05 30.04 24.13C29.11 24.16 29.16 23.67 29.18 23.08C29.2 22.48 28.98 21.84 30.08 21.85C34.04 21.91 38 21.91 41.97 21.85C43.08 21.83 42.82 22.47 42.86 23.07C42.91 23.74 42.86 24.17 41.92 24.13C39.98 24.04 38.03 24.1 36.08 24.1ZM23.97 21.88C24.95 21.88 25.94 21.9 26.93 21.87C27.5 21.85 27.7 22.04 27.69 22.6C27.64 24.39 27.84 24.08 26.19 24.1C24.42 24.12 22.64 24.05 20.88 24.12C19.89 24.16 20.08 23.57 20.09 23.03C20.1 22.49 19.85 21.79 20.91 21.86C21.92 21.93 22.95 21.88 23.97 21.88ZM25.07 36.64C25.26 37.5 24.54 37.74 23.91 37.92C23.39 38.07 22.74 37.27 22.68 36.67C22.6 35.77 23.28 35.42 23.9 35.42C24.45 35.42 25.18 35.73 25.07 36.64Z" />
		</g>
	</g>
</svg>