<svg xmlns="http://www.w3.org/2000/svg" viewBox="0 0 68 52" width="68" height="52">
	<style>
		tspan { white-space:pre }
		.shp0 { fill: #e3ebf1 } 
	</style>
	<g id="4">
		<g id="2">
			<path id="Shape 7 copy" class="shp0" d="M67.21 39.03C67.02 38.25 66.85 37.47 66.65 36.7C65.95 34.05 64.48 31.81 62.94 29.61C60.99 26.83 58.9 24.16 56.24 22C54.4 20.5 52.38 19.62 49.93 19.73C47.59 19.83 45.24 19.77 42.9 19.74C42.33 19.73 42.2 19.9 42.2 20.44C42.22 28.54 42.23 36.64 42.21 44.74C42.21 45.32 42.34 45.55 42.97 45.54C45.22 45.5 47.46 45.52 49.71 45.53C50.16 45.54 50.33 45.44 50.38 44.94C50.71 41.65 53.4 39.21 56.68 39.18C59.86 39.15 62.6 41.6 62.99 44.85C63.05 45.38 63.22 45.56 63.75 45.53C64.43 45.48 65.12 45.47 65.8 45.54C66.56 45.6 67.11 45.45 67.21 44.59C67.21 42.74 67.21 40.88 67.21 39.03ZM60.36 30.25C55.3 30.25 50.39 30.24 45.49 30.26C45.01 30.26 45 29.99 45 29.65C45.01 27.34 45.03 25.02 45 22.71C44.99 22.13 45.2 22.03 45.72 22.04C47.48 22.06 49.23 22.09 50.99 22.03C52.19 21.99 53.19 22.37 54.1 23.09C55.21 23.96 56.2 24.97 57.13 26.04C58.26 27.34 59.33 28.69 60.36 30.25ZM0.37 18.39C0.76 20.04 1.22 21.66 2 23.2C4.94 29.06 11.95 32.65 18.38 31.47C25.34 30.19 29.79 26.04 31.33 19.2C32.71 13.07 30.74 7.76 25.87 3.79C20.37 -0.7 13.29 -1 7.35 2.85C3.61 5.26 1.32 8.74 0.5 13.14C0.48 13.28 0.42 13.42 0.37 13.55C0.37 15.17 0.37 16.78 0.37 18.39ZM29.28 15.97C29.27 23.34 23.31 29.27 15.95 29.24C8.59 29.21 2.71 23.34 2.67 15.99C2.64 8.65 8.59 2.69 15.97 2.68C23.33 2.67 29.3 8.63 29.28 15.97ZM3.53 29.07C3.53 31.93 3.54 34.63 3.53 37.33C3.53 37.68 3.69 37.72 3.97 37.73C4.48 37.76 5.14 37.5 5.44 37.87C5.76 38.25 5.55 38.91 5.55 39.44C5.56 41.24 5.57 43.05 5.55 44.85C5.54 45.37 5.7 45.52 6.21 45.51C7.87 45.49 9.53 45.49 11.19 45.5C11.59 45.51 11.77 45.45 11.83 44.97C12.43 40.2 17.18 37.75 21.37 40.08C23.14 41.06 24.17 42.64 24.41 44.65C24.5 45.4 24.77 45.52 25.45 45.52C30.55 45.49 35.66 45.5 40.76 45.52C41.35 45.52 41.55 45.4 41.55 44.76C41.53 33.93 41.53 23.1 41.55 12.27C41.55 11.55 41.35 11.37 40.65 11.39C38.48 11.43 36.3 11.42 34.13 11.39C33.54 11.38 33.44 11.55 33.57 12.11C35.54 20.71 30.62 29.8 22.32 32.76C15.59 35.16 9.47 34.01 3.99 29.41C3.89 29.32 3.77 29.24 3.53 29.07ZM7.32 39.76C7.32 39.76 7.32 39.76 7.32 39.76C7.32 39.25 7.34 38.74 7.32 38.23C7.3 37.85 7.45 37.73 7.82 37.72C8.22 37.71 8.32 37.87 8.32 38.23C8.3 39.2 8.3 40.18 8.32 41.15C8.32 41.48 8.29 41.68 7.86 41.68C7.45 41.68 7.3 41.55 7.32 41.14C7.34 40.68 7.32 40.22 7.32 39.76ZM51.03 45.51C51.01 48.58 53.59 51.2 56.64 51.17C59.77 51.14 62.27 48.85 62.33 45.5C62.39 42.45 59.79 39.9 56.75 39.88C53.58 39.86 51.05 42.36 51.03 45.51ZM56.67 47.97C55.29 47.96 54.2 46.89 54.19 45.53C54.18 44.2 55.31 43.06 56.65 43.05C58.05 43.05 59.15 44.16 59.14 45.55C59.14 46.92 58.05 47.98 56.67 47.97ZM23.88 45.54C23.89 42.41 21.38 39.9 18.21 39.89C15.15 39.88 12.5 42.44 12.57 45.5C12.64 48.84 15.11 51.12 18.25 51.17C21.31 51.22 23.87 48.63 23.88 45.54ZM18.23 47.97C16.85 47.98 15.77 46.92 15.76 45.54C15.75 44.16 16.88 43.04 18.27 43.05C19.58 43.06 20.69 44.16 20.72 45.46C20.75 46.84 19.63 47.96 18.23 47.97ZM32.97 48.09C35.56 48.09 38.14 48.08 40.73 48.11C41.29 48.11 41.56 47.96 41.48 47.38C41.47 47.31 41.48 47.24 41.48 47.16C41.48 46.2 41.48 46.2 40.55 46.2C35.48 46.2 30.41 46.21 25.33 46.19C24.7 46.18 24.41 46.32 24.53 46.98C24.55 47.15 24.55 47.33 24.52 47.49C24.45 47.99 24.68 48.1 25.15 48.1C27.76 48.08 30.36 48.09 32.97 48.09ZM51.34 17.71C49.91 15.92 48.25 14.75 46.42 13.82C45.4 13.31 44.35 12.86 43.24 12.57C42.86 12.47 42.71 12.53 42.72 12.96C42.74 14.39 42.73 15.83 42.72 17.26C42.72 17.55 42.79 17.71 43.13 17.71C45.8 17.71 48.48 17.71 51.34 17.71ZM46.25 48.09C47.39 48.09 48.54 48.07 49.68 48.1C50.16 48.11 50.37 48.02 50.36 47.47C50.33 46.21 50.36 46.2 49.08 46.2C46.98 46.2 44.89 46.22 42.79 46.19C42.25 46.18 42.14 46.37 42.15 46.86C42.2 48.35 41.99 48.06 43.39 48.09C43.88 48.1 44.37 48.09 44.86 48.09C45.32 48.09 45.78 48.09 46.25 48.09C46.25 48.09 46.25 48.09 46.25 48.09ZM7.53 9.99C7.5 10.33 7.73 10.62 7.99 10.88C10.34 13.23 12.68 15.58 15.04 17.92C15.67 18.54 16.27 18.57 16.9 17.95C19.3 15.58 21.68 13.2 24.05 10.8C24.59 10.26 24.56 9.49 24.06 9.04C23.56 8.58 22.87 8.6 22.3 9.17C20.35 11.09 18.41 13.01 16.49 14.96C16.11 15.36 15.91 15.42 15.49 14.98C13.67 13.11 11.8 11.28 9.95 9.44C9.74 9.24 9.53 9.02 9.28 8.88C8.48 8.42 7.52 9.01 7.53 9.99Z" />
		</g>
	</g>
</svg>