<svg xmlns="http://www.w3.org/2000/svg" viewBox="0 0 50 50" width="50" height="50">
	<style>
		tspan { white-space:pre }
		.shp0 { fill: #e3ebf1 } 
	</style>
	<g id="4">
		<g id="2">
			<path id="Shape 8 copy" class="shp0" d="M34.61 0.02C33.63 1.1 33.17 2.08 33.35 3.27C33.43 3.81 33.13 3.9 32.71 3.9C32.35 3.9 31.99 3.91 31.62 3.91C24.58 3.91 17.53 3.91 10.49 3.91C8.56 3.91 8.28 4.2 8.28 6.17C8.28 13.92 8.28 21.66 8.28 29.41C8.28 31.18 8.59 31.49 10.36 31.49C18.13 31.5 25.9 31.5 33.67 31.49C35.47 31.49 35.78 31.17 35.78 29.28C35.78 27.93 35.78 26.58 35.78 25.09C36.91 25.68 37.96 26.09 39.13 25.76C39.65 25.62 39.61 26.03 39.61 26.34C39.61 28.67 39.61 31.01 39.59 33.34C39.58 34.01 39.23 34.58 38.92 35.15C37.95 36.94 38.03 38.71 38.99 40.48C40.12 42.58 39.37 43.94 37.04 43.95C31.41 43.97 25.77 43.98 20.14 43.93C19.04 43.92 18.68 44.26 18.77 45.36C18.85 46.28 18.79 47.22 18.78 48.15C18.77 48.74 18.66 49.28 18.02 49.5C17.42 49.71 16.96 49.43 16.57 49C16.1 48.49 15.63 47.98 15.16 47.47C13.81 46.04 13.53 46.04 12.22 47.44C11.69 48.02 11.15 48.59 10.61 49.15C10.23 49.55 9.78 49.73 9.25 49.5C8.72 49.27 8.53 48.82 8.53 48.27C8.53 47.15 8.49 46.03 8.54 44.91C8.57 44.17 8.3 43.93 7.6 43.94C6.14 43.98 4.69 43.98 3.23 43.94C1.48 43.9 0.65 43.05 0.65 41.25C0.64 28.42 0.64 15.59 0.65 2.76C0.65 1 1.44 0.04 3.07 0.03C13.47 0 23.87 0.02 34.61 0.02ZM19.88 35.32C15.39 35.32 10.9 35.32 6.4 35.32C5.61 35.32 4.68 35.32 4.55 36.31C4.41 37.41 4.09 38.62 4.88 39.66C5.1 39.94 5.43 39.97 5.75 39.98C6.25 39.99 6.75 39.93 7.24 40C8.24 40.13 8.71 39.79 8.53 38.71C8.36 37.69 8.84 37.47 9.75 37.49C12.38 37.54 15.02 37.55 17.65 37.49C18.56 37.47 18.93 37.78 18.78 38.67C18.59 39.87 19.19 40.02 20.18 40.01C24.4 39.96 28.62 39.95 32.84 40.01C34.06 40.03 34.98 40.06 34.47 38.33C34.3 37.78 34.35 37.11 34.47 36.53C34.67 35.5 34.3 35.28 33.36 35.29C28.86 35.34 24.37 35.31 19.88 35.32ZM40.07 14.96C36.31 14.96 32.54 14.96 28.78 14.96C27.65 14.96 26.51 14.98 25.38 14.95C23.4 14.88 22.32 13.78 22.37 11.94C22.42 10.2 23.53 9.16 25.43 9.15C30.3 9.14 35.16 9.15 40.01 9.15C40.26 8.6 39.79 8.46 39.58 8.22C38.6 7.18 37.56 6.2 36.61 5.14C35.59 4 35.59 2.46 36.51 1.47C37.41 0.49 38.97 0.39 40.12 1.25C40.37 1.44 40.6 1.67 40.83 1.9C43.39 4.54 45.96 7.18 48.51 9.84C50.15 11.54 50.13 12.8 48.47 14.51C45.9 17.16 43.32 19.79 40.76 22.43C40.02 23.19 39.2 23.74 38.11 23.57C37.15 23.42 36.43 22.87 36.08 21.91C35.67 20.81 35.88 19.77 36.68 18.94C37.85 17.72 39.08 16.55 40.28 15.37C40.21 15.23 40.14 15.09 40.07 14.96ZM13.72 24C15.86 24 16.05 24.21 16.06 26.51C16.06 28.79 15.84 29 13.52 29C11.44 28.99 11.27 28.78 11.27 26.24C11.28 24.16 11.44 24 13.72 24ZM15.99 17.89C15.99 20.27 15.91 20.35 13.63 20.35C11.31 20.35 11.25 20.29 11.24 17.93C11.24 15.58 11.36 15.46 13.59 15.46C15.88 15.46 15.99 15.58 15.99 17.89ZM15.99 9.3C16 11.66 15.92 11.74 13.62 11.74C11.29 11.74 11.25 11.7 11.24 9.32C11.24 6.94 11.31 6.87 13.61 6.87C15.89 6.87 15.99 6.97 15.99 9.3Z" />
		</g>
	</g>
</svg>